<svg fill="none" height="305" width="312" xmlns="http://www.w3.org/2000/svg" xmlns:xlink="http://www.w3.org/1999/xlink"><linearGradient id="a" gradientUnits="userSpaceOnUse" x1="198.458" x2="10.313" y1="105.572" y2="66.813"><stop offset=".02" stop-color="#9caaeb"/><stop offset="1" stop-color="#e5e9fe"/></linearGradient><linearGradient id="b"><stop offset=".02" stop-color="#1e56b7"/><stop offset="1" stop-color="#46a0cd"/></linearGradient><linearGradient id="c" gradientUnits="userSpaceOnUse" x1="-.001" x2="311.999" xlink:href="#b" y1="249.802" y2="249.802"/><linearGradient id="d"><stop offset=".02" stop-color="#2c7be5"/><stop offset="1" stop-color="#19cde8"/></linearGradient><linearGradient id="e" gradientUnits="userSpaceOnUse" x1="1.598" x2="311.278" xlink:href="#d" y1="235.213" y2="235.213"/><linearGradient id="f" gradientUnits="userSpaceOnUse" x1="105.019" x2="127.056" y1="213.391" y2="280.289"><stop offset=".02" stop-color="#cdd4fd"/><stop offset="1" stop-color="#e5e9fe"/></linearGradient><linearGradient id="g" gradientUnits="userSpaceOnUse" x1="13867.1" x2="18538.5" xlink:href="#b" y1="15920.9" y2="15920.9"/><linearGradient id="h" gradientUnits="userSpaceOnUse" x1="146.456" x2="232.108" y1="206.621" y2="120.933"><stop offset=".02" stop-color="#1e56b7"/><stop offset=".22" stop-color="#2059b9"/><stop offset=".38" stop-color="#2764be"/><stop offset=".54" stop-color="#3275c7"/><stop offset=".69" stop-color="#428ed4"/><stop offset=".83" stop-color="#56aee5"/><stop offset=".97" stop-color="#6fd5f9"/><stop offset="1" stop-color="#74ddfd"/></linearGradient><linearGradient id="i" gradientUnits="userSpaceOnUse" x1="155.912" x2="216.754" y1="88.475" y2="88.475"><stop offset=".02" stop-color="#84eafd"/><stop offset="1" stop-color="#19cde8"/></linearGradient><linearGradient id="j" gradientUnits="userSpaceOnUse" x1="25663.3" x2="44366" xlink:href="#d" y1="51355.8" y2="62763.8"/><mask id="k" height="111" maskUnits="userSpaceOnUse" width="311" x="1" y="180"><path d="m100.545 288.422-95.458-38.458c-4.809-1.956-4.641-4.863.448-6.54l188.957-61.935c5.033-1.677 13.03-1.453 17.839.503l95.457 38.514c4.81 1.956 4.642 4.863-.447 6.54l-188.957 61.935c-5.033 1.621-13.03 1.397-17.839-.559z" fill="url(#e)"/></mask><mask id="l" height="210" maskUnits="userSpaceOnUse" width="179" x="11" y="0"><path d="m27.791 208.712 150.316-43.433c6.487-1.901 11.241-9.447 11.241-17.999v-130.466c0-10.956-7.662-18.782-15.994-16.378l-150.316 43.432c-6.487 1.901-11.24 9.447-11.24 18v130.465c0 10.956 7.661 18.782 15.993 16.379z" fill="url(#a)" opacity=".72"/></mask><path d="m27.791 208.712 150.316-43.433c6.487-1.901 11.241-9.447 11.241-17.999v-130.466c0-10.956-7.662-18.782-15.994-16.378l-150.316 43.432c-6.487 1.901-11.24 9.447-11.24 18v130.465c0 10.956 7.661 18.782 15.993 16.379z" fill="url(#a)" opacity=".72"/><path d="m29.469 196.749 7.773-2.235a.964.964 0 0 0 .56-.951v-6.763c0-.559-.392-.951-.84-.839l-7.773 2.236a.961.961 0 0 0 -.559.95v6.764c.056.559.448 1.006.839.838zm13.477-3.409 7.773-2.236a.962.962 0 0 0 .56-.951v-6.763c0-.559-.392-.95-.84-.839l-7.773 2.236a.962.962 0 0 0 -.559.951v6.763c0 .559.392.95.84.839zm13.141-3.913 7.773-2.236a.962.962 0 0 0 .56-.95v-6.764c0-.559-.392-.95-.84-.838l-7.772 2.236a.956.956 0 0 0 -.56.95v6.763c0 .559.392.951.84.839zm15.043-3.466 7.773-2.236a.962.962 0 0 0 .56-.95v-6.764c0-.559-.392-.95-.84-.838l-7.773 2.236a.962.962 0 0 0 -.559.95v6.764c0 .559.392.95.84.838z" fill="#fff" opacity=".72"/><path d="m99.538 303.067-95.457-38.514c-4.81-1.956-5.76-18.558-.727-20.179l190.076-48.295c5.033-1.677 13.029-1.454 17.839.503l98.309 24.818c4.809 1.957 1.789 18.503-3.244 20.179l-188.901 61.991c-5.089 1.621-13.086 1.398-17.895-.503z" fill="url(#c)"/><path d="m100.545 288.422-95.458-38.458c-4.809-1.956-4.641-4.863.448-6.54l188.957-61.935c5.033-1.677 13.03-1.453 17.839.503l95.457 38.514c4.81 1.956 4.642 4.863-.447 6.54l-188.957 61.935c-5.033 1.621-13.03 1.397-17.839-.559z" fill="url(#e)"/><path d="m109.101 279.814-83.714-33.763c-4.81-1.956-4.642-4.863.447-6.54l160.102-52.488c5.033-1.677 13.03-1.453 17.839.503l83.714 33.763c4.809 1.956 4.642 4.863-.447 6.54l-160.102 52.488c-5.033 1.677-13.03 1.453-17.839-.503z" fill="url(#f)"/><path d="m36.403 244.71-2.516-1.006c-.168-.056-.168-.168 0-.224l4.865-1.565a.952.952 0 0 1 .56 0l2.516 1.006c.167.056.167.168 0 .224l-4.866 1.621a.973.973 0 0 1 -.559-.056zm6.599 2.18-2.517-1.006c-.167-.056-.167-.168 0-.224l4.866-1.565a.952.952 0 0 1 .559 0l2.516 1.006c.168.056.168.168 0 .224l-4.865 1.565a.644.644 0 0 1 -.56 0zm6.263 2.068-2.516-1.006c-.168-.056-.168-.168 0-.224l4.865-1.565a.952.952 0 0 1 .559 0l2.516 1.006c.168.056.168.168 0 .224l-4.865 1.565a.952.952 0 0 1 -.559 0zm6.04 2.18-2.517-1.006c-.168-.056-.168-.168 0-.224l4.865-1.565a.952.952 0 0 1 .56 0l2.516 1.006c.168.056.168.168 0 .224l-4.865 1.565a.952.952 0 0 1 -.56 0z" fill="#fff"/><g fill="#9caaeb"><path d="m156.018 244.375c18.408 0 33.329-5.381 33.329-12.019 0-6.637-14.921-12.018-33.329-12.018-18.407 0-33.329 5.381-33.329 12.018 0 6.638 14.922 12.019 33.329 12.019z" opacity=".45"/><path d="m156.018 241.188c13.59 0 24.606-3.954 24.606-8.832 0-4.877-11.016-8.831-24.606-8.831-13.589 0-24.605 3.954-24.605 8.831 0 4.878 11.016 8.832 24.605 8.832z"/><path d="m156.019 249.405c-25.836 0-46.862-7.658-46.862-17.049 0-9.39 21.026-17.049 46.862-17.049 25.835 0 46.862 7.659 46.862 17.049 0 9.391-21.027 17.049-46.862 17.049zm0-33.539c-25.556 0-46.303 7.379-46.303 16.49 0 9.112 20.803 16.49 46.303 16.49s46.302-7.378 46.302-16.49c0-9.111-20.746-16.49-46.302-16.49z" opacity=".5"/></g><path d="m225.92 22.404a4.361 4.361 0 1 0 -4.362-4.36 4.361 4.361 0 0 0 4.362 4.36z" fill="#74ddfd"/><path d="m242.249 22.404a4.305 4.305 0 1 0 -4.306-4.304 4.305 4.305 0 0 0 4.306 4.304z" fill="#c1eaff"/><path d="m155.72 216.661-.03 15.651.559.001.03-15.651z" fill="#74ddfd"/><path d="m62.672 250.936-.206.52 51.367 20.339.206-.52zm-3.235 1.29-.206.519 51.367 20.34.206-.52zm146.717-59.144-.206.519 51.367 20.34.206-.52zm-3.248 1.293-.206.519 51.366 20.34.206-.52z" fill="#fff"/><path d="m108.43 59.185 14.204-8.273s12.806 15.092 20.97 17.048c8.165 1.957 12.359 2.237 15.211 1.342 2.852-.894-3.635 4.248-3.635 4.248l-25.053 8.553-20.803-18.726z" fill="url(#g)"/><path d="m200.7 115.753 15.993-10.229s1.342 34.992-1.23 47.96c-2.293 11.683-9.675 29.123-14.763 35.44-5.089 6.316-31.987 26.216-44.793 25.936-12.806-.279 18.845-57.463 18.845-57.463z" fill="url(#h)"/><path d="m155.907 70.811 14.315-8.273s8.724 25.322 24.158 34.825 22.313 8.441 22.313 8.441l-14.204 8.608-31.092-9.335-15.546-30.632v-3.635h.056z" fill="url(#i)"/><path d="m108.431 59.185s14.763 18.39 27.736 18.222c12.974-.167 19.629-5.98 19.629-5.98s16.608 32.42 30.756 37.842 16.889 4.36 16.889 4.36 1.789 42.091-4.251 57.463c-6.039 15.372-12.023 34.881-43.73 44.719-2.404-3.913-17.391-22.751-28.855-44.719-5.648-10.788-9.003-21.912-11.911-30.185-8.556-24.539-6.263-81.722-6.263-81.722z" fill="url(#j)"/><g fill="#fff"><path d="m108.43 59.185a75.676 75.676 0 0 0 9.73 9.67 50.447 50.447 0 0 0 5.536 4.08 31.167 31.167 0 0 0 6.095 3.075c.529.22 1.071.406 1.622.559.559.112 1.119.28 1.678.391 1.106.204 2.23.298 3.355.28a39.167 39.167 0 0 0 6.766-.727 33.83 33.83 0 0 0 6.543-1.956 25.39 25.39 0 0 0 5.872-3.354l.28-.224.167.335a207.886 207.886 0 0 0 8.5 14.422 123.767 123.767 0 0 0 9.954 13.36 58.832 58.832 0 0 0 5.928 5.869 23.104 23.104 0 0 0 7.046 4.192 108.595 108.595 0 0 0 7.885 2.683c1.342.392 2.684.727 4.026 1.007.671.111 1.342.279 2.013.335.334.046.67.065 1.007.056h.727c.056 0 .168-.056.168 0l.671.447c.223 5.143.279 10.285.279 15.428s-.112 10.285-.391 15.428c-.28 5.142-.671 10.285-1.398 15.372a70.225 70.225 0 0 1 -1.51 7.602 41.98 41.98 0 0 1 -1.174 3.745l-1.398 3.577c-1.846 4.808-3.803 9.615-6.375 14.087a53.126 53.126 0 0 1 -9.395 12.353 59.185 59.185 0 0 1 -12.582 9.111l-3.467 1.789-3.579 1.509c-.616.224-1.175.504-1.79.727l-1.845.615-3.691 1.286-.392.111-.223-.335c-.895-1.453-1.957-2.851-2.964-4.248l-3.076-4.248c-2.013-2.851-4.082-5.702-6.039-8.609a307.455 307.455 0 0 1 -11.296-17.775c-3.579-6.093-6.934-12.242-9.563-18.726-2.74-6.484-4.921-13.136-7.158-19.788-.279-.838-.559-1.621-.838-2.515-.28-.895-.56-1.677-.783-2.516-.224-.838-.448-1.677-.671-2.571-.224-.894-.392-1.733-.56-2.571-.727-3.41-1.286-6.876-1.733-10.397-.951-6.932-1.454-13.919-1.79-20.962a439.986 439.986 0 0 1 -.503-21.018c-.056-6.931.056-13.918.336-20.961zm0 0c-.224 6.987-.224 13.974-.112 21.017s.335 13.975.727 20.962c.391 6.987 1.006 13.974 1.957 20.906.951 6.931 2.293 13.807 4.697 20.347 2.293 6.596 4.53 13.247 7.27 19.676 2.74 6.428 6.095 12.521 9.618 18.614 3.524 6.093 7.326 11.906 11.297 17.663a297.653 297.653 0 0 0 6.039 8.609l3.076 4.248c1.006 1.453 2.069 2.795 3.019 4.36l-.615-.224 3.635-1.229 1.79-.615c.615-.224 1.174-.503 1.789-.727l3.523-1.509 3.411-1.733a55.429 55.429 0 0 0 12.303-8.944 54.026 54.026 0 0 0 9.227-12.074 101.582 101.582 0 0 0 6.319-13.974l1.398-3.578a39.176 39.176 0 0 0 1.174-3.633 68.204 68.204 0 0 0 1.51-7.49 155.634 155.634 0 0 0 1.398-15.316c.224-5.143.392-10.23.392-15.372 0-5.143-.056-10.285-.224-15.372l.671.447a1.107 1.107 0 0 1 -.391.056h-.839a6.225 6.225 0 0 1 -1.063-.112c-.727-.056-1.398-.223-2.125-.335-1.398-.28-2.74-.671-4.082-1.062-2.684-.783-5.312-1.733-7.941-2.739a14.681 14.681 0 0 1 -1.957-.839c-.335-.167-.615-.335-.951-.503a4.817 4.817 0 0 1 -.894-.559l-.895-.559a7.884 7.884 0 0 1 -.839-.615 17.57 17.57 0 0 1 -1.678-1.341 50.424 50.424 0 0 1 -5.983-5.981 116.87 116.87 0 0 1 -9.954-13.528c-3.02-4.695-5.872-9.558-8.444-14.533l.447.056a25.804 25.804 0 0 1 -6.039 3.41 30.204 30.204 0 0 1 -6.655 1.9c-2.273.39-4.572.614-6.878.67a14.314 14.314 0 0 1 -3.467-.334c-.559-.112-1.119-.28-1.678-.392a13.909 13.909 0 0 1 -1.622-.559 31.652 31.652 0 0 1 -6.095-3.186 48.577 48.577 0 0 1 -5.48-4.136 67.75 67.75 0 0 1 -9.786-9.838z"/><path d="m216.592 105.554-13.296 7.835.284.482 13.296-7.835zm-60.685-34.743 14.371-8.273-14.092 8.776zm-47.645-11.85 14.316-8.05-14.037 8.553z"/><path d="m110.667 66.619a68.93 68.93 0 0 0 8.835 8.776 46.535 46.535 0 0 0 5.033 3.69 28.573 28.573 0 0 0 5.536 2.794 16.07 16.07 0 0 0 6.04 1.118 37.663 37.663 0 0 0 6.151-.67 27.861 27.861 0 0 0 5.928-1.79 20.925 20.925 0 0 0 5.312-3.074l.28-.223.168.335c2.348 4.472 4.976 8.832 7.717 13.08a113.975 113.975 0 0 0 9.059 12.13 48.066 48.066 0 0 0 5.368 5.31c1.958 1.565 4.027 3.019 6.375 3.801 2.349.895 4.754 1.733 7.158 2.404 1.23.335 2.405.671 3.635.894.615.112 1.23.224 1.845.28.296.046.596.065.895.056h.783l.671.447c.168 4.695.224 9.335.224 14.03 0 4.696-.112 9.335-.336 14.031-.223 4.695-.615 9.335-1.286 13.974-.168 1.174-.391 2.292-.615 3.466s-.503 2.292-.783 3.465c-.112.559-.335 1.118-.503 1.677l-.559 1.677-1.287 3.242a97.241 97.241 0 0 1 -5.76 12.801 47.84 47.84 0 0 1 -8.555 11.236 54.994 54.994 0 0 1 -11.408 8.272l-3.132 1.621-3.243 1.398c-.56.224-1.063.447-1.622.671l-1.678.559-3.355 1.118-.391.111-.224-.335c-.839-1.286-1.79-2.571-2.684-3.857l-2.796-3.857a387.313 387.313 0 0 1 -5.481-7.826c-3.579-5.254-7.046-10.62-10.233-16.098a147.549 147.549 0 0 1 -8.724-16.993c-2.46-5.869-4.474-11.962-6.487-17.943-.559-1.51-.95-3.019-1.398-4.584a43.214 43.214 0 0 1 -1.118-4.64c-.168-.782-.392-1.565-.503-2.347l-.392-2.348-.391-2.348-.336-2.347c-.168-1.566-.447-3.131-.559-4.752l-.447-4.751c-.112-1.565-.224-3.186-.336-4.751-.112-1.566-.168-3.187-.28-4.752-.335-6.372-.447-12.688-.447-19.06 0-6.373.112-12.746.336-19.118zm0 0c-.168 6.372-.168 12.689-.112 19.061.056 6.373.279 12.689.671 19.061.391 6.373.895 12.689 1.789 18.95.895 6.26 2.069 12.521 4.25 18.502 2.069 6.037 4.082 12.018 6.599 17.831a145.868 145.868 0 0 0 8.724 16.882c3.243 5.478 6.654 10.788 10.233 16.042 1.79 2.628 3.635 5.199 5.48 7.77l2.797 3.857a98.576 98.576 0 0 1 2.74 3.913l-.615-.224 3.299-1.118 1.622-.559c.559-.223 1.062-.447 1.621-.67l3.188-1.342 3.075-1.565a51.457 51.457 0 0 0 11.185-8.105 48.756 48.756 0 0 0 8.388-10.956c2.293-4.025 4.026-8.329 5.76-12.689l1.286-3.242.559-1.621c.168-.559.392-1.062.503-1.621.224-1.118.56-2.236.783-3.354.224-1.118.392-2.292.615-3.41.671-4.583 1.007-9.223 1.287-13.863.279-4.639.335-9.335.391-13.974.056-4.64-.056-9.335-.224-13.975l.671.448a.85.85 0 0 1 -.335.056h-.783c-.336 0-.671-.056-1.007-.056a10.402 10.402 0 0 1 -1.901-.336c-1.286-.279-2.516-.615-3.747-.95a78.653 78.653 0 0 1 -7.213-2.515 21.44 21.44 0 0 1 -6.599-3.969 55.19 55.19 0 0 1 -5.424-5.422 114.073 114.073 0 0 1 -9.06-12.298c-2.74-4.304-5.312-8.664-7.661-13.192l.448.056a22.167 22.167 0 0 1 -5.481 3.075 32.41 32.41 0 0 1 -6.039 1.732c-2.068.374-4.163.58-6.263.615a16.49 16.49 0 0 1 -6.152-1.174 29.029 29.029 0 0 1 -5.536-2.906 46.331 46.331 0 0 1 -4.977-3.745 74.483 74.483 0 0 1 -8.835-9z" opacity=".14"/><g mask="url(#k)"><path d="m206.012 168.689 135.665 48.016-182.135 58.749z" opacity=".25"/><path d="m258.913 151.416 135.665 48.016-182.191 58.749z" opacity=".25"/></g></g><g mask="url(#l)"><path d="m120.229-.011-98.365 227.784-63.974-33.148 6.487-165.513z" fill="#fff" opacity=".09"/></g></svg>